<svg xmlns="http://www.w3.org/2000/svg" width="285.454" height="162.87" viewBox="0 0 285.454 162.87">
  <g id="Group_334" data-name="Group 334" transform="translate(-349.083 -189.715)">
    <g id="Group_332" data-name="Group 332" transform="translate(349.083 189.715)">
      <g id="Group_327" data-name="Group 327" transform="translate(29.74 16.497)">
        <g id="Group_323" data-name="Group 323" transform="translate(140.646 6.487)">
          <path id="Path_770" data-name="Path 770" d="M454.066,196.734c-.884,19.868-38.707,13.141-49.838,36.317a30.157,30.157,0,0,0-3.114,12.834h4.264c.573-19.671,14.464-24.161,31.26-28.218C457.858,212.538,454.066,196.734,454.066,196.734Z" transform="translate(-401.114 -196.734)" fill="#c6c6c6"/>
        </g>
        <g id="Group_324" data-name="Group 324" transform="translate(146.947 37.076)">
          <path id="Path_771" data-name="Path 771" d="M411.751,218.426h0C411.728,218.443,411.778,218.41,411.751,218.426Z" transform="translate(-383.232 -177.99)" fill="#c6c6c6"/>
          <path id="Path_772" data-name="Path 772" d="M414.135,211.866h0C414.125,211.833,414.129,211.846,414.135,211.866Z" transform="translate(-377.809 -192.948)" fill="#c6c6c6"/>
          <path id="Path_773" data-name="Path 773" d="M410.7,207.372v0C410.716,207.376,410.693,207.369,410.7,207.372Z" transform="translate(-385.609 -203.131)" fill="#c6c6c6"/>
          <path id="Path_774" data-name="Path 774" d="M409.016,206.932h0Z" transform="translate(-389.44 -204.125)" fill="#c6c6c6"/>
          <path id="Path_775" data-name="Path 775" d="M410.337,207.223l0,0C410.3,207.213,410.318,207.216,410.337,207.223Z" transform="translate(-386.481 -203.48)" fill="#c6c6c6"/>
          <path id="Path_776" data-name="Path 776" d="M445.4,229.293l-.043-.806-.023-.4-.016-.278-.023-.2-.183-1.693-.046-.314-.036-.206-.065-.4-.134-.792-.013-.079-.039-.2-.01-.049-.075-.288-.108-.393-.223-.806c-.226-.789-.4-1.189-.58-1.713l-.066-.187-.1-.272-.154-.373-.308-.74-.039-.092-.092-.213-.023-.043-.092-.18-.187-.354-.432-.825c-.275-.475-.531-.884-.963-1.533l-.465-.658-.282-.4-.242-.321-.213-.282-.128-.154-.262-.3-.236-.275-.137-.147-.268-.3-.272-.3-.134-.147-.069-.075-.174-.18-.58-.56-.291-.275-.075-.069-.118-.111-.039-.033-.157-.124-.625-.508-.429-.344-.331-.229-.665-.462-.082-.059-.124-.088-.02-.013-.046-.026-.173-.1-.347-.206-.842-.5-.72-.363c-.242-.121-.468-.242-.776-.373l-.861-.37-.367-.154-.19-.072-.121-.049a.6.6,0,0,1-.069-.026l-.124-.052-.72-.216-.088-.026-.095-.033-.046-.01-.18-.046-.36-.088-.724-.18-.138-.039-.046-.01-.089-.02-.183-.039-.363-.075-.128-.033-1.392-.18-.131-.023-.436-.02-.216-.01-.115-.007-.052,0h-.108l-.868-.016-.472-.007-.432.01h-.206l-.026,0-.056,0-.216.02-.544.043-.858.118-.429.056-.056.007-.108.016-.026,0-.108.023-.213.046-.848.177-.246.052-.213.049-.419.1-.088.02-.887.295-.5.177-.432.177-.462.193-.442.193-.842.4a2.751,2.751,0,0,0-.275.141l-.2.115-.4.233c-.213.121-.282.18-.429.275l-.386.255-1.562,1.041-.056.036-.013.01-1.634,1.467-.033.029L408.2,213.5l-.023.026-1,1.31-.246.327a2.176,2.176,0,0,0-.128.177l-.111.174-.436.688c-.278.481-.583.946-.819,1.431-.265.475-.481.982-.707,1.474l-.318.766c-.111.249-.2.514-.292.763-.193.508-.347,1.032-.514,1.546-.144.54-.3,1.051-.4,1.588l-.173.819h.079l.193-.8c.115-.527.3-1.051.452-1.552.187-.511.36-1.022.573-1.523.1-.255.2-.5.327-.74l.354-.717c.259-.481.5-.96.8-1.418.275-.475.589-.9.894-1.339l.495-.648.124-.164.124-.141.272-.3,1.071-1.172c.524-.491,1.058-.953,1.585-1.425l1.723-1.221,1.634-.835.416-.213c.121-.059.311-.167.373-.187l.429-.183.216-.1c.072-.029.049-.013.151-.049l.881-.288.429-.121.416-.111.449-.118.39-.072.914-.174-.088.02.432-.046.216-.023.052-.007c-.006,0,.052-.007-.006,0h.026l.108-.01.865-.059.216-.016.111-.007.026,0h0c.075-.007-.1.013-.082.01h.511l.868,0h.026c.016,0-.066,0-.1,0h.01l.013,0h.052l.108.007.216.01.216.01.056,0h.026l.007,0c-.1,0-.072,0-.062,0h0l.013,0,.108.013.432.049.393.062.858.131.108.016.049.007c-.111-.01-.029,0-.052,0h.006l.016,0,.026.007.213.039.426.079-.131-.023,1.349.37-.124-.033.347.124.177.062.085.033.046.016.01,0,.007,0h0l-.088-.026.02.007.688.275.344.137.174.069.043.02.01,0-.039-.013h0l.023.01.082.036.668.308-.124-.052.354.19.088.046.069.033.016.01.039.023.147.085.586.337c.187.1.416.255.642.4l.675.445c.092.1.884.668,1.028.812l.606.534.3.269.039.033.016.013c-.043-.036-.121-.1-.1-.085l.007,0,.007.01.072.072.141.144.567.573.141.144.036.036.006.01.007,0c.016.02-.154-.141-.079-.072l.016.02.066.079.262.3.53.609.033.039.007.01c.023.023-.193-.2-.1-.1l0,0,.016.023.059.079.124.16.242.321.246.321.121.16.03.039.016.02.006.01c-.039-.046-.111-.138-.1-.118l0,0,.059.082.232.328.118.164,0,.007c.082.111-.1-.144-.085-.118l.007.01.013.023.026.043.056.085.789,1.3c.144.239.416.717.639,1.172l.016.043.043.092.082.18.164.367.164.367.043.1,0,.01.033.095.275.756.138.377.092.295c.151.5.357,1.1.4,1.343l.177.75.088.383.02.079V225l.013.079.223,1.457.147,1.5.016.18,0,.039,0,.1.016.4.029.648-.072,1.2-.046.727,0,.088,0,.029-.02.147-.052.36-.2,1.441-.02.144-.065.275-.161.711-.16.711-.079.344-.007.02-.052.177-.206.7-.013.043,0,.007-.007.023-.062.17-.124.341c-.085.223-.167.481-.236.622l-.2.511c-.052.151-.173.393-.275.609l-.3.639-.478.851c-.134.229-.082.17-.216.377l-.278.442-.655.95-.327.475-.164.236-.082.121-.02.026-.291.347-.183.223-.092.111-.046.056-.013.013-.006.007c.043-.046-.072.079.075-.079l-.386.429-.2.213-.1.108-.049.056-.023.026.115-.108,0,0,0,0-.007.007-.013.01-.842.792-.422.4-.213.2-.1.1-.052.049-.016.013-.373.291-.229.18-.115.088-.056.043-.029.023,0,0,.082-.056-.007,0-.016.013-.229.174-.118.085-.056.046-.029.02,0,0c-.02.013-.043.026.118-.072l-.007.007-.016.01-.242.157-.121.079-.062.039-.029.02-.016.01-.007.007c.043-.023-.1.052.095-.052l-.007,0-.986.612-.907.491-.527.249-.262.124-.131.059-.066.033-.033.016.1-.039-.013,0-1.051.422-.94.321-1.084.295.187-.026-1.7.262-.426.065-.052.01-.026,0-.013,0h0l.059,0h-.007l-.108.013-.213.023-.213.023-.026,0h-.013l-.006,0h.072l-.056,0-.1,0-.4.016-.861.013c-.147.007-.285.007-.4,0l-.367-.016-.812-.059-.183-.013-.213-.026-.429-.056v0l-1.287-.291-.645-.141a7.03,7.03,0,0,1-.691-.21l-.331-.115-.347-.131-.691-.262-.344-.131-.295-.138c-.193-.085-.4-.183-.622-.308l-.619-.324a5.467,5.467,0,0,1-.612-.341l-.311-.2-.141-.092-.151-.1-.6-.426c-.187-.137-.436-.295-.57-.419l-.557-.481-.537-.465-.544-.5.023.023-.537-.583-.544-.612c-.177-.2-.377-.409-.531-.609l-.494-.652-.242-.324-.115-.151-.1-.174-.429-.694a15.182,15.182,0,0,1-.793-1.4c-.249-.475-.459-.982-.678-1.477-.118-.246-.2-.488-.295-.747l-.282-.766a4.571,4.571,0,0,1-.177-.557h-.141a5.424,5.424,0,0,0,.167.612l.249.776c.082.249.167.524.272.773.206.5.367,1.022.593,1.52.206.5.465,1.015.717,1.483l.386.72.1.18.118.183.219.344.436.688c.157.249.324.445.485.668l.488.655.511.661.023.026,1.012,1.107.5.544c.213.226.373.344.563.524l.55.491.138.121.157.128.285.233a7.3,7.3,0,0,0,.625.455l.645.439q.29.206.658.422l.357.213.324.17,1.336.681a7.531,7.531,0,0,0,.688.318l.766.288,1.388.521.167-.635-.138.648.02,0h0l.413.111.206.059.242.052.884.187.485.085c.174.029.324.049.458.065l.855.1.462.046.108.01.052.007h.134l.213.007.216.007.108,0,.17-.007.429-.007,1.719-.033h0l.187-.023,1.192-.154,1.307-.259,1.156-.291,1.235-.4c.508-.2.7-.265,1.2-.475l1.048-.5.616-.311.622-.367,1.077-.665,1.988-1.48.992-.881.923-.933L440.566,244l.38-.5c.088-.108.337-.5.4-.6l.629-.969.1-.17.354-.639c.118-.219.229-.4.37-.7l.39-.819c.144-.3.216-.5.311-.73l.138-.337.072-.167.033-.085.065-.187.233-.691.059-.17.029-.088.016-.043.059-.206.1-.354.19-.7.187-.7.095-.35.023-.088.066-.341.006-.046.029-.177.219-1.441.056-.36.026-.177.023-.187.007-.092.052-.724.118-1.546.013-.147Zm-7.774-9.546,0,0h0Zm.049.1.006.01-.01-.02Zm1.713,5.233,0-.013v.007Zm-.016-.066.01.039-.007-.026Zm-6.9,20.8h0l-.007.007C432.494,245.781,432.475,245.8,432.465,245.807Zm2.725-2.839h0C435.235,242.912,435.147,243.024,435.189,242.968Zm.141-.174-.01.013.013-.02Zm3.6-7.185h0v0Zm.511-2.24h0v0Zm.249-1.893,0,0h0Z" transform="translate(-403.038 -206.075)" fill="#c6c6c6"/>
          <path id="Path_777" data-name="Path 777" d="M408.835,206.922h0Z" transform="translate(-389.901 -204.148)" fill="#c6c6c6"/>
        </g>
        <g id="Group_325" data-name="Group 325" transform="translate(7.205 38.056)">
          <path id="Path_778" data-name="Path 778" d="M366.018,207.53Z" transform="translate(-347.506 -203.758)" fill="#c6c6c6"/>
          <path id="Path_779" data-name="Path 779" d="M367.52,207.228h0C367.543,207.231,367.559,207.231,367.52,207.228Z" transform="translate(-344.089 -204.431)" fill="#c6c6c6"/>
          <path id="Path_780" data-name="Path 780" d="M365.642,207.681Z" transform="translate(-348.371 -203.404)" fill="#c6c6c6"/>
          <path id="Path_781" data-name="Path 781" d="M402.521,235.362c-.02.079-.033.154-.052.232l-.226.786c-.082.265-.134.524-.239.779l-.278.77c-.1.262-.18.508-.295.756-.223.5-.429,1.009-.678,1.487-.246.5-.5.943-.792,1.415l-.429.7-.108.174-.111.151-.246.331-.494.655c-.151.2-.354.409-.527.616l-.544.616-.54.589.023-.026-.543.5-.537.472-.557.485c-.134.121-.383.282-.567.419l-.6.432-.151.1-.141.092-.311.2a6.528,6.528,0,0,1-.616.344l-.619.328c-.223.124-.429.223-.622.308l-.291.138-.347.138-.691.262-.347.131-.331.115a6.445,6.445,0,0,1-.688.213l-.645.141-1.29.3v-.007l-.426.056-.213.029-.183.01-.815.062-.367.013c-.111.007-.246.007-.4,0l-.861-.016-.393-.016-.108,0-.056,0h.056l-.029,0-.213-.026-.213-.023-.108-.01h0v0l.056,0h0l-.013,0-.026,0-.052-.007-.426-.069-1.7-.262.187.023-1.084-.295-.94-.324-1.051-.426-.013-.007c.21.082.052.02.1.039l-.033-.013-.065-.033-.131-.062-.262-.124-.524-.249-.91-.494-.986-.619,0,0c.193.1.049.026.092.049l-.007,0-.016-.01-.029-.02-.059-.039-.125-.082-.242-.161-.013-.007-.01-.007c.242.151.065.039.118.075l0,0-.029-.023-.056-.046-.115-.085-.232-.177-.016-.013-.007,0,.082.056,0,0-.029-.02-.056-.046-.115-.088-.229-.18-.373-.295-.013-.013-.052-.049-.108-.1-.21-.2-.422-.4-.845-.8-.013-.013-.007-.007,0,0,0,.007.118.108-.026-.029-.049-.052-.095-.108-.193-.216-.386-.432c.147.157.029.033.072.079l-.006-.007-.01-.016-.046-.056-.1-.111-.183-.223-.292-.35-.02-.026-.082-.121-.164-.239-.327-.478-.655-.96-.275-.445c-.134-.21-.085-.147-.219-.38l-.475-.858-.3-.645c-.1-.219-.223-.462-.272-.612l-.206-.517c-.066-.144-.147-.4-.233-.625l-.128-.344-.062-.174-.007-.023,0-.007-.01-.043-.21-.7-.052-.177-.007-.02-.079-.347-.16-.717-.161-.717-.062-.275-.02-.147-.2-1.451-.049-.363-.023-.151v-.029l-.007-.088-.046-.734-.072-1.212.029-.648.016-.406.007-.1v-.039l.016-.183.147-1.51.223-1.474.013-.079v-.01l.02-.079.088-.386.177-.753c.043-.249.249-.858.4-1.356l.092-.3.138-.38.275-.763.033-.095,0-.01.046-.1.164-.37.161-.37.082-.183.043-.095.02-.043c.223-.455.491-.94.635-1.179l.792-1.31.052-.085.026-.043.013-.023.006-.01c.023-.029-.167.229-.085.118l0-.007.118-.164.232-.331.059-.082,0-.007c.016-.016-.059.072-.1.118l.006-.007.016-.02.029-.043.121-.16.246-.324.246-.324.121-.16.062-.079.016-.023,0,0c.092-.1-.125.131-.1.1l.01-.01.033-.039.527-.612.262-.311.065-.075.016-.02c.075-.072-.1.088-.075.072l0,0,.01-.01.033-.036.144-.144.563-.583.141-.144.072-.072.01-.01,0,0c.016-.016-.062.052-.1.085l.016-.013.039-.033.3-.272.606-.537c.147-.144.937-.72,1.028-.819l.675-.449c.226-.151.459-.308.642-.406l.589-.341.147-.085.036-.023.016-.01.069-.033.088-.049.354-.193-.124.056.668-.311.085-.036.02-.01h0l-.039.013.01,0,.043-.02.174-.069.344-.138.688-.278.023-.01-.092.029h0l0,0h0l.013,0,.043-.016.088-.033.174-.062.35-.128-.128.033,1.349-.37-.131.02.426-.079.216-.039.026-.007.013,0h.01c-.026,0,.056-.007-.056,0l.052-.007.1-.016.858-.134.393-.059.432-.052.108-.013.013,0h0c.01,0,.039,0-.062,0h.007l.026,0h.056l.216-.013.216-.01.108-.007h.052l.016,0h.01c-.043,0-.124,0-.108,0h.9l.432,0h.075c.02,0-.157-.016-.082-.007h.033l.108.01.216.013.865.062.111.007.026,0c-.062-.013,0,0-.01,0l.056,0,.216.026.429.046-.088-.02.914.174.39.075.449.118.416.111.432.121.881.288c.1.039.075.023.147.052l.219.1.426.187c.062.02.255.128.377.187l.413.216,1.634.842,1.723,1.231c.527.475,1.064.94,1.588,1.438l1.068,1.182.272.308.125.141.124.164.5.655c.3.439.616.874.891,1.352.295.462.537.946.8,1.428l.354.724a7.938,7.938,0,0,1,.327.747c.213.5.39,1.022.573,1.536.157.508.341,1.035.455,1.565l.066.278h.092l-.062-.3c-.1-.54-.252-1.054-.4-1.6-.164-.517-.321-1.045-.514-1.559-.092-.252-.18-.521-.288-.77l-.321-.773c-.226-.494-.442-1.005-.707-1.483-.236-.491-.54-.959-.819-1.444l-.436-.7-.108-.174c-.056-.085-.085-.118-.131-.18l-.242-.327-1-1.323-.023-.026-1.47-1.65-.033-.029-1.634-1.48-.01-.01-.056-.036-1.565-1.048-.386-.262c-.148-.095-.216-.154-.429-.275l-.4-.236-.193-.115c-.069-.043-.232-.121-.275-.141l-.845-.406-.442-.193-.462-.2-.432-.18-.5-.177-.887-.3-.088-.02-.419-.1-.21-.052-.249-.052-.848-.177-.213-.046-.1-.023-.026-.007-.111-.013-.056-.007-.429-.059-.858-.115-.544-.046-.216-.02-.056,0-.026,0h-.2l-.436-.01-.468.007-.868.016h-.108l-.056,0-.115.007-.216.01-.436.023-.131.02-1.392.183-.128.033-.364.075-.183.039-.088.02-.046.01-.138.039-.72.18-.363.092-.18.046-.046.01-.095.033-.088.026-.717.219-.125.052c-.023.007-.088.036-.072.026l-.121.049-.187.075-.37.154-.861.373c-.3.131-.534.252-.773.373l-.72.37-.845.508-.347.21-.174.1-.042.026-.023.013-.125.088-.082.059-.661.465-.331.233-.429.347-.629.511-.157.128-.039.033-.118.111-.075.069-.291.278-.576.563-.177.183-.065.075-.138.151-.268.3-.272.3-.134.147-.236.278-.262.308-.131.154-.213.285-.239.324-.285.4-.462.665c-.436.652-.691,1.068-.963,1.546l-.432.829-.187.36-.095.18-.023.043-.092.213-.039.1-.308.747-.151.377-.1.272-.069.19c-.177.531-.354.93-.58,1.729l-.223.809-.108.4-.075.291-.01.049-.039.2-.013.082-.134.8-.065.4-.036.206-.043.318-.187,1.706-.023.2-.016.282-.023.4-.043.809-.007.167.01.151.118,1.555.056.73.007.092.02.19.026.18.056.36.223,1.454.026.18.007.046.066.341.023.092.1.354.19.707.187.711.095.354.062.21.013.043.029.088.059.174.236.694.062.19.036.085.069.17.138.341c.095.229.17.436.311.734l.393.825c.138.3.249.488.367.707l.357.645.095.174.626.976c.065.1.318.494.406.6l.38.511,1.624,1.981.924.943.992.887,1.984,1.49,1.077.671.622.37.616.318,1.048.5c.5.213.691.282,1.2.481l1.234.4,1.156.291,1.307.262,1.2.157.187.023h0l1.716.033.429.007.174.007.1,0,.216-.007.213-.007.134,0,.056,0,.1-.01.465-.046.851-.1c.138-.016.288-.036.458-.065l.485-.085.884-.19.242-.052.206-.059.416-.111h0l.02,0-.138-.658.167.645,1.385-.524.766-.291c.272-.1.458-.216.691-.321l1.333-.688.324-.174.357-.213a7.428,7.428,0,0,0,.658-.429l.645-.442a6.861,6.861,0,0,0,.626-.455l.285-.236.157-.128.138-.124.55-.494c.19-.18.35-.3.563-.527l.5-.55,1.012-1.117.02-.023.514-.668.485-.662c.164-.226.327-.422.485-.675l.436-.694.219-.347.118-.183.1-.183.383-.724c.252-.475.511-1,.717-1.5.226-.5.386-1.025.593-1.533.1-.252.19-.527.272-.783l.252-.779c.092-.259.141-.537.21-.8l.193-.8.056-.259ZM368.1,220.249l-.01.016,0-.007Zm-1.713,5.266.01-.043v.01Zm0,.016,0-.01,0,.016Zm-.308,6.458h0v0Zm.252,1.916v0Zm0-.016c0-.016,0-.023,0,0Zm.511,2.276v0h0Zm3.6,7.237.013.016-.007-.01Zm.144.183h0C370.621,243.637,370.533,243.526,370.579,243.585Zm2.728,2.859c-.013-.01-.033-.023.007.007l0,0Z" transform="translate(-360.365 -206.374)" fill="#c6c6c6"/>
          <path id="Path_782" data-name="Path 782" d="M362.212,212.214l0,0C362.215,212.194,362.219,212.181,362.212,212.214Z" transform="translate(-356.17 -193.135)" fill="#c6c6c6"/>
          <path id="Path_783" data-name="Path 783" d="M364.6,218.83h0C364.572,218.814,364.625,218.85,364.6,218.83Z" transform="translate(-350.753 -178.05)" fill="#c6c6c6"/>
        </g>
        <g id="Group_326" data-name="Group 326" transform="translate(182.471 54.108)">
          <path id="Path_784" data-name="Path 784" d="M430.62,217.963H414.194a29.554,29.554,0,0,0-.308-6.687H430.62Z" transform="translate(-413.886 -211.276)" fill="#c6c6c6"/>
          <path id="Path_785" data-name="Path 785" d="M418.747,211.276h8.1l.138,11.838c.17,2.119.465,7.159,2.034,8.658,1.7,1.624,4.457,1.12,6.029,1.372v6.674l-2.479-.082c-5.249-.511-6.474-1.015-9.778-4.064C418.082,231.337,418.563,222.289,418.747,211.276Z" transform="translate(-403.074 -211.276)" fill="#c6c6c6"/>
        </g>
        <path id="Path_786" data-name="Path 786" d="M388.561,214.568s25.71-15.945,47.235-18.934,42.454,2.59,42.454,2.59-14.923,17.241-15.634,27.059c0,0-16.256-6.33-39.424-1.912,0,0,9.084-22.131-1.546-12.722-9.5,8.41-27.9,14.635-46.275,8.164C375.37,218.812,380.531,220.08,388.561,214.568Z" transform="translate(-319.028 -194.753)" fill="#c6c6c6"/>
        <path id="Path_787" data-name="Path 787" d="M365.887,268.709s-14.127-14.37-4.165-33.6c12.686-24.488,55.8-17.382,56.813-38.376,0,0,4.323,16.7-19.871,22.117S355.545,230.395,365.887,268.709Z" transform="translate(-358.165 -190.247)" fill="#c6c6c6"/>
        <path id="Path_788" data-name="Path 788" d="M372.178,214.3s3.032-6,18.522-3,37.378-1.123,40.076-11.245c0,0-2.358,16.495-22.9,17.241S384.3,211.3,372.178,214.3Z" transform="translate(-326.289 -182.695)" fill="#c6c6c6"/>
        <path id="Path_789" data-name="Path 789" d="M362.408,230.687s11.786,14.995,31.994,3.75,19.868-17.621,29.3-16.495c0,0-7.748-5.77-22,5.122C393.727,229.154,380.93,241.182,362.408,230.687Z" transform="translate(-348.513 -145.479)" fill="#c6c6c6"/>
        <path id="Path_790" data-name="Path 790" d="M403.781,219.836s5.423,12.935,21.954,8.917,17.533-8.609,24-5.963c0,0-4.365-5.606-16.6-.675C426.288,224.876,414.859,230.9,403.781,219.836Z" transform="translate(-254.401 -137.696)" fill="#c6c6c6"/>
      </g>
      <g id="Group_331" data-name="Group 331">
        <g id="Group_329" data-name="Group 329">
          <g id="Group_328" data-name="Group 328" transform="translate(0 12.185)">
            <path id="Path_791" data-name="Path 791" d="M424.83,198.612c-16.03,8.3-30.183,16.835-42.781,18.289-1.451,1.749-2.073,3.517-7.447,6.379,2.915.871,6.238.455,8.927-.134,7.345-1.618,48.646-35.577,92.724-19.632l7.886-5.885S446.132,187.57,424.83,198.612Z" transform="translate(-291.035 -193.436)" fill="#fff"/>
            <path id="Path_792" data-name="Path 792" d="M362.031,232.988c16.531-14.72,37.833-31.483,51.056-28.624,1.192.259,2.315.544,3.409.838,4.984-.776,6.3-2.4,8.547-3.861-14.831-4.241-32.78-2.957-57.134,16.518-26.08,20.85-22.772,40.882-4.041,41.088C363.868,258.947,345.5,247.7,362.031,232.988Z" transform="translate(-349.083 -179.975)" fill="#fff"/>
          </g>
          <path id="Path_793" data-name="Path 793" d="M400.763,243.921s1.379-72.984,64.466-43.236C465.229,200.685,414.265,193.058,400.763,243.921Z" transform="translate(-231.526 -180.976)" fill="#fff"/>
          <path id="Path_794" data-name="Path 794" d="M425.177,210.407s-14.009-5.623-35.105-4.748c0,0,18.8-4.228,35.943-.275A20.148,20.148,0,0,0,425.177,210.407Z" transform="translate(-255.845 -157.914)" fill="#fff"/>
          <path id="Path_795" data-name="Path 795" d="M370.212,223.975s-10.836-5.341-14.877-5.227c0,0,12.306-1.752,13.59,0S370.212,223.975,370.212,223.975Z" transform="translate(-334.862 -125.443)" fill="#fff"/>
          <path id="Path_796" data-name="Path 796" d="M407.34,200.59s39.83-13.125,69.146,22.9C476.486,223.493,454.6,166.487,407.34,200.59Z" transform="translate(-216.565 -189.715)" fill="#fff"/>
        </g>
        <path id="Path_797" data-name="Path 797" d="M414.7,216.71s3.033-6,18.522-3,37.381-1.123,40.076-11.245c0,0-2.358,16.495-22.9,17.245S426.824,213.71,414.7,216.71Z" transform="translate(-199.821 -160.713)" fill="#fff"/>
        <path id="Path_798" data-name="Path 798" d="M467.7,205.976s-13.014,16.059-26.1,17.359c-12.5,1.238-11.953,12.857-6.228,12.857s13.256-2.476,13.256-2.476-7.525,7.257-14.772,6.965c-14.8-.583-14.651-17.464-2.865-21.21S460.965,215.345,467.7,205.976Z" transform="translate(-182.244 -152.727)" fill="#fff"/>
        <circle id="Ellipse_24" data-name="Ellipse 24" cx="4.375" cy="4.375" r="4.375" transform="translate(188.895 73.136)" fill="#fff"/>
        <path id="Path_799" data-name="Path 799" d="M422.531,206.777a21.637,21.637,0,0,0-20.929,16.18h11.688a10.61,10.61,0,1,1,9.074,16.1,10.082,10.082,0,0,1-8.845-4.614H401.792a21.185,21.185,0,0,0,20.739,15.607,21.638,21.638,0,1,0,0-43.275Z" transform="translate(-229.617 -150.905)" fill="#fff"/>
        <path id="Path_800" data-name="Path 800" d="M391.454,233.695a10.378,10.378,0,0,1-18.447-1.634h9.634v-7.705H373a10.379,10.379,0,0,1,18.528-1.552H402.9a20.986,20.986,0,1,0-.056,10.892Z" transform="translate(-320.586 -150.056)" fill="#fff"/>
        <g id="Group_330" data-name="Group 330" transform="translate(74.075 64.541)">
          <path id="Path_801" data-name="Path 801" d="M371.7,217.692,478.6,221.707v-6.481L371.7,215.32Z" transform="translate(-371.703 -196.226)" fill="#fff"/>
          <path id="Path_802" data-name="Path 802" d="M371.7,209.424v8.184l106.893-.673V213.1Z" transform="translate(-371.703 -209.424)" fill="#fff"/>
        </g>
        <path id="Path_803" data-name="Path 803" d="M459.458,208.112s-2.109-4.179-12.9-2.089-26.041-.783-27.917-7.833c0,0,1.641,11.491,15.951,12.012S451.016,206.023,459.458,208.112Z" transform="translate(-190.863 -170.438)" fill="#fff"/>
      </g>
    </g>
    <g id="Group_333" data-name="Group 333" transform="translate(350.452 323.09)">
      <path id="Path_804" data-name="Path 804" d="M363.474,253.131h17.464q-2.328,6.808-11.062,6.808H349.5l10.132-29.5h29.109q-2.333,6.808-11.062,6.808h-8.734l-1.572,4.536h17.464q-2.328,6.808-11.062,6.808h-8.73Z" transform="translate(-349.501 -230.444)" fill="#fff"/>
      <path id="Path_805" data-name="Path 805" d="M380.688,230.444l-10.132,29.5h-2.911q-8.734,0-6.4-6.808l7.8-22.687Z" transform="translate(-323.911 -230.444)" fill="#fff"/>
      <path id="Path_806" data-name="Path 806" d="M394.959,237.252H389.14l-5.472,15.879h5.819l1.572-4.535H402.7l-3.9,11.344H378.425q-8.734,0-6.4-6.808l7.8-22.687H400.2q8.729,0,6.4,6.808l-1.572,4.536H393.39Z" transform="translate(-299.386 -230.444)" fill="#fff"/>
      <path id="Path_807" data-name="Path 807" d="M390.514,230.444h20.375q8.734,0,6.405,6.808l-7.8,22.687h-2.908q-8.739,0-6.405-6.808l1.572-4.535h-5.822l-3.9,11.344h-2.911q-8.734,0-6.405-6.808Zm9.313,6.808-1.572,4.536h5.822l1.572-4.536Z" transform="translate(-275.074 -230.444)" fill="#fff"/>
      <path id="Path_808" data-name="Path 808" d="M412.437,248.6h-5.822l-3.9,11.344H399.8q-8.734,0-6.4-6.808l7.8-22.687H430.31l-2.328,6.808q-2.328,6.8-11.848,9.074h8.734l-4.686,13.613H417.27q-8.733,0-6.405-6.808Zm-1.922-11.344-1.572,4.536h5.822l1.572-4.536Z" transform="translate(-250.76 -230.444)" fill="#fff"/>
      <path id="Path_809" data-name="Path 809" d="M418.581,248.6l-3.9,11.344H403.036l10.132-29.5h11.645l-3.9,11.344h5.822l3.9-11.344h11.645l-10.129,29.5H420.5l3.9-11.344Z" transform="translate(-227.724 -230.444)" fill="#fff"/>
      <path id="Path_810" data-name="Path 810" d="M421.178,259.939q-8.729,0-6.4-6.808l7.8-22.687h29.109l-2.325,6.808q-2.333,6.8-11.851,9.074h8.734l-4.686,13.613Zm11.062-6.808,1.572-4.535H427.99l-1.569,4.535Zm-.347-15.879-1.572,4.536h5.822l1.569-4.536Z" transform="translate(-202.132 -230.444)" fill="#fff"/>
      <path id="Path_811" data-name="Path 811" d="M433.268,230.444h20.375q8.734,0,6.405,6.808l-7.8,22.687h-2.911q-8.739,0-6.405-6.808L444.5,248.6h-5.822l-3.9,11.344H431.87q-8.734,0-6.405-6.808Zm9.313,6.808-1.572,4.536h5.822l1.572-4.536Z" transform="translate(-177.82 -230.444)" fill="#fff"/>
    </g>
  </g>
</svg>
