<svg xmlns="http://www.w3.org/2000/svg" width="87.782" height="66.569" viewBox="0 0 87.782 66.569">
  <path id="Icon_awesome-car" data-name="Icon awesome-car" d="M82.771,23.041H72.859L70.1,16.154A18.447,18.447,0,0,0,52.891,4.5H31.867A18.453,18.453,0,0,0,14.652,16.154L11.9,23.041H1.988A1.986,1.986,0,0,0,.061,25.509l.993,3.973a1.985,1.985,0,0,0,1.927,1.5H6.3a10.521,10.521,0,0,0-3.655,7.946V46.88A10.509,10.509,0,0,0,5.3,53.821v8.951a5.3,5.3,0,0,0,5.3,5.3h5.3a5.3,5.3,0,0,0,5.3-5.3v-5.3h42.38v5.3a5.3,5.3,0,0,0,5.3,5.3h5.3a5.3,5.3,0,0,0,5.3-5.3V53.821A10.5,10.5,0,0,0,82.11,46.88V38.933a10.525,10.525,0,0,0-3.654-7.946h3.322a1.985,1.985,0,0,0,1.927-1.5l.993-3.973a1.988,1.988,0,0,0-1.929-2.468ZM24.489,20.089a7.947,7.947,0,0,1,7.378-4.995H52.891a7.947,7.947,0,0,1,7.378,4.995l3.3,8.249H21.189l3.3-8.249Zm-8.6,26.757a5,5,0,0,1-5.3-5.281,5,5,0,0,1,5.3-5.281c3.178,0,7.946,4.753,7.946,7.921S19.07,46.847,15.892,46.847Zm52.974,0c-3.178,0-7.946.528-7.946-2.64s4.768-7.921,7.946-7.921a5,5,0,0,1,5.3,5.281,5,5,0,0,1-5.3,5.281Z" transform="translate(1.511 -3)" fill="none" stroke="#fff" stroke-width="3"/>
</svg>
