<svg id="Group_905" data-name="Group 905" xmlns="http://www.w3.org/2000/svg" width="250.115" height="176.262" viewBox="0 0 250.115 176.262">
  <circle id="Ellipse_40" data-name="Ellipse 40" cx="13.621" cy="13.621" r="13.621" transform="translate(114.118 148.646)" fill="#324a54"/>
  <path id="Path_1499" data-name="Path 1499" d="M473.813,360.5c7.62-2.289,15.721-4.675,21.765-10.115,5.4-4.862,9.046-12.285,6.809-19.576s-8.92-12.128-15.825-14.54a64.923,64.923,0,0,0-12.108-2.724c-4.452-.648-8.924-1.18-13.393-1.691q-27.146-3.1-54.5-3.793c-9-.227-17.993-.221-26.991-.091-8.036.117-16.5.114-23.955-3.3-5.8-2.656-11.059-7.488-12.674-13.838-1.865-7.33,1.575-14.795,6.508-20.1a52.694,52.694,0,0,1,8.776-7.319c3.4-2.349,6.922-4.532,10.518-6.57a146.467,146.467,0,0,1,22.139-10.206c3.774-1.372,7.6-2.556,11.468-3.648a98.128,98.128,0,0,0,9.687-3.1c6.095-2.429,11.892-6.544,13.442-13.29,1.469-6.393-1.008-13.334-5.349-18.083-5.023-5.495-12.6-7.9-19.857-8.293-8.151-.438-16.115,1.6-23.777,4.192-8.172,2.762-16.167,5.937-24.511,8.174a164.919,164.919,0,0,1-25.227,4.689,68.432,68.432,0,0,1-12.661.605,15.309,15.309,0,0,1-9.6-3.814,9.5,9.5,0,0,1-3.09-8.182c.083-.564.939-.324.857.236-.554,3.777,2.014,7.257,5.177,9.04,3.656,2.06,8.106,2.063,12.176,1.828a159.259,159.259,0,0,0,26.21-3.789,210.63,210.63,0,0,0,24.785-7.651c7.745-2.8,15.663-5.542,23.937-6.149,7.179-.527,14.732.519,20.986,4.271a23.216,23.216,0,0,1,10.827,15.107,17.511,17.511,0,0,1-5.152,16.676c-4.833,4.455-11.46,6.36-17.635,8.114a161.567,161.567,0,0,0-22.917,8.2A143.861,143.861,0,0,0,359.1,263.883c-6.587,4.5-13.088,10.166-15.172,18.2a16.763,16.763,0,0,0,.833,11.242,20.543,20.543,0,0,0,6.592,7.823c6.609,4.863,14.939,5.862,22.923,5.961,8.967.112,17.933-.191,26.9-.044q27.419.45,54.726,3.338,6.842.724,13.668,1.6a123.585,123.585,0,0,1,12.223,1.982c7.155,1.661,14.117,4.854,18.564,10.92a17.268,17.268,0,0,1,1.471,18.882c-3.415,6.719-9.811,10.992-16.6,13.8a117.814,117.814,0,0,1-11.179,3.774.445.445,0,0,1-.236-.857Z" transform="translate(-264.701 -185.379)" fill="#f2f2f2"/>
  <circle id="Ellipse_41" data-name="Ellipse 41" cx="7.107" cy="7.107" r="7.107" transform="translate(30.171 13.473)" fill="#f2f2f2"/>
  <circle id="Ellipse_42" data-name="Ellipse 42" cx="7.107" cy="7.107" r="7.107" transform="translate(79.473 26.946)" fill="#f2f2f2"/>
  <circle id="Ellipse_43" data-name="Ellipse 43" cx="7.107" cy="7.107" r="7.107" transform="translate(121.225)" fill="#f2f2f2"/>
  <circle id="Ellipse_44" data-name="Ellipse 44" cx="7.107" cy="7.107" r="7.107" transform="translate(147.282 30.203)" fill="#f2f2f2"/>
  <circle id="Ellipse_45" data-name="Ellipse 45" cx="7.107" cy="7.107" r="7.107" transform="translate(112.045 65.144)" fill="#f2f2f2"/>
  <circle id="Ellipse_46" data-name="Ellipse 46" cx="7.107" cy="7.107" r="7.107" transform="translate(67.333 82.022)" fill="#f2f2f2"/>
  <circle id="Ellipse_47" data-name="Ellipse 47" cx="7.107" cy="7.107" r="7.107" transform="translate(114.71 108.376)" fill="#f2f2f2"/>
  <circle id="Ellipse_48" data-name="Ellipse 48" cx="7.107" cy="7.107" r="7.107" transform="translate(165.641 123.181)" fill="#f2f2f2"/>
  <circle id="Ellipse_49" data-name="Ellipse 49" cx="7.107" cy="7.107" r="7.107" transform="translate(225.158 119.924)" fill="#f2f2f2"/>
  <path id="Path_1500" data-name="Path 1500" d="M511.362,220.371a39.417,39.417,0,0,0-39.02,38.736c0,.2,0,1.578,0,3.386a9.993,9.993,0,0,0,9.991,9.992h0a10,10,0,0,0,10-10.006c0-1.232,0-2.083,0-2.135A18.951,18.951,0,1,1,521.5,276.3l0,0s-14.222,9.156-18.557,21.715h0a27.836,27.836,0,0,0-1.147,7.926c0,1.1.065,10.755.19,18.589a10.3,10.3,0,0,0,10.3,10.133h0A10.3,10.3,0,0,0,522.6,324.3c-.044-7.174-.067-15.528-.067-16.135,0-7.712,7.44-15.4,13.551-20.407a41.1,41.1,0,0,0,14.135-22.5,25.692,25.692,0,0,0,.74-5.577,39.308,39.308,0,0,0-39.592-39.307Z" transform="translate(-385.082 -200.234)" fill="#324a54"/>
  <path id="Path_1501" data-name="Path 1501" d="M427.426,745.955H178.015a.353.353,0,1,1,0-.705h249.41a.353.353,0,1,1,0,.705Z" transform="translate(-177.662 -569.693)" fill="#3f3d56"/>
  <circle id="Ellipse_50" data-name="Ellipse 50" cx="8.883" cy="8.883" r="8.883" transform="translate(177.206 63.07)"/>
  <path id="Path_1502" data-name="Path 1502" d="M560.277,548.843h-3.63l-1.727-14h5.358Z" transform="translate(-390.604 -376.47)" fill="#a0616a"/>
  <path id="Path_1503" data-name="Path 1503" d="M541.517,578.626h7v4.408H537.109a4.408,4.408,0,0,1,4.408-4.408Z" transform="translate(-378.067 -407.29)" fill="#a18042"/>
  <path id="Path_1504" data-name="Path 1504" d="M655.277,548.843h-3.63l-1.727-14h5.358Z" transform="translate(-457.473 -376.47)" fill="#a0616a"/>
  <path id="Path_1505" data-name="Path 1505" d="M636.517,578.626h7v4.408H632.109A4.408,4.408,0,0,1,636.517,578.626Z" transform="translate(-444.936 -407.29)" fill="#a18042"/>
  <circle id="Ellipse_51" data-name="Ellipse 51" cx="7.273" cy="7.273" r="7.273" transform="translate(177.466 66.343)" fill="#a0616a"/>
  <path id="Path_1506" data-name="Path 1506" d="M754.379,455.439l3.254-7.477a9.293,9.293,0,0,0-2.058-10.541,9.437,9.437,0,0,0-.909-.791,9.16,9.16,0,0,0-5.623-1.945,9.528,9.528,0,0,0-3.968.882c-.107.047-.21.1-.317.148-.2.1-.406.2-.6.314a9.38,9.38,0,0,0-4.649,7.071l-1.436,12.034c-.361.945-13.248,35.056-8.741,61.1a1.323,1.323,0,0,0,1.131,1.087l4.569.622a1.332,1.332,0,0,0,1.483-1.045l7.666-36.543a1.037,1.037,0,0,1,2.013-.068l10.832,38.429a1.324,1.324,0,0,0,1.276.971,1.513,1.513,0,0,0,.258-.024l5.582-1.075a1.324,1.324,0,0,0,1.075-1.424C764.4,508.016,760.037,462.2,754.379,455.439Z" transform="translate(-565.305 -351.089)" fill="#f5a934"/>
  <path id="Path_1507" data-name="Path 1507" d="M706.054,415.082a2.978,2.978,0,0,0,3.137,3.317l4.065,9.769,3.075-4.558L712,415.032a2.994,2.994,0,0,0-5.946.05Z" transform="translate(-549.579 -335.414)" fill="#a0616a"/>
  <path id="Path_1508" data-name="Path 1508" d="M792.182,509.514a2.978,2.978,0,0,0,2.5-3.824l8.553-6.23-5.149-1.928-7.333,6.211a2.994,2.994,0,0,0,1.434,5.77Z" transform="translate(-607.847 -395.327)" fill="#a0616a"/>
  <path id="Path_1509" data-name="Path 1509" d="M728.113,452.964a5.048,5.048,0,0,1-.977-.1,4.828,4.828,0,0,1-3.538-2.847l-5.7-6.945a1.333,1.333,0,0,1,.329-1.978l4.052-2.508a1.333,1.333,0,0,1,1.84.441l4.014,6.613,7.687-5.681a2.879,2.879,0,0,1,3.349,4.608l-7.673,7A4.813,4.813,0,0,1,728.113,452.964Z" transform="translate(-557.721 -353.697)" fill="#d99b39"/>
  <path id="Path_1510" data-name="Path 1510" d="M811.521,468.571h-.031a1.335,1.335,0,0,1-.98-.465l-3.6-4.2a1.332,1.332,0,0,1,.272-1.976l6.746-4.5-6.111-7.347a2.878,2.878,0,0,1,4.408-3.607l7.427,7.258a4.893,4.893,0,0,1-1.088,7.977l-6.071,6.442A1.335,1.335,0,0,1,811.521,468.571Z" transform="translate(-620.356 -358.859)" fill="#d99b39"/>
  <path id="Path_1511" data-name="Path 1511" d="M785.743,443.556a1.376,1.376,0,0,1-.173-.011,1.321,1.321,0,0,1-1.1-.909l-2.707-8.3a.913.913,0,0,1,.472-1.1l.088-.042c.08-.038.159-.075.239-.111a9.645,9.645,0,0,1,4.028-.9,9.276,9.276,0,0,1,5.082,1.527.927.927,0,0,1,.267,1.272l-5.078,7.956A1.319,1.319,0,0,1,785.743,443.556Z" transform="translate(-602.854 -349.33)" fill="#e6e6e6"/>
  <circle id="Ellipse_52" data-name="Ellipse 52" cx="2.907" cy="2.907" r="2.907" transform="translate(190.186 62.174)"/>
  <path id="Path_1512" data-name="Path 1512" d="M777.81,361.365h0a7.7,7.7,0,0,0-7.7,7.7v3.257h4.006l1.916-3.257.575,3.257h12.158l-3.257-3.257A7.7,7.7,0,0,0,777.81,361.365Z" transform="translate(-594.682 -299.48)"/>
  <path id="Path_1513" data-name="Path 1513" d="M834.809,358.015a4.486,4.486,0,0,1,4.88-3.078,6.217,6.217,0,0,1,4.19,3.462,34.1,34.1,0,0,1,1.862,5.309,9.614,9.614,0,0,0,2.9,4.733,4.315,4.315,0,0,0,5.208.28,5.957,5.957,0,0,1-11.1,2.126,12.887,12.887,0,0,1-1.193-4.516,9.869,9.869,0,0,0-1.44-4.424,3.659,3.659,0,0,0-4.087-1.522Z" transform="translate(-640.223 -294.925)"/>
  <path id="Path_1514" data-name="Path 1514" d="M484.818,306.437h0a9.993,9.993,0,0,1-9.992-9.991c0-1.809,0-3.19,0-3.387a38.941,38.941,0,0,1,4.548-17.739,39.028,39.028,0,0,0-7.509,22.477c0,.2,0,1.578,0,3.386a9.993,9.993,0,0,0,9.991,9.992h0a10,10,0,0,0,9.62-7.282A9.956,9.956,0,0,1,484.818,306.437Z" transform="translate(-384.749 -238.913)" fill="#cfcfcf"/>
  <path id="Path_1515" data-name="Path 1515" d="M569.977,280.164a18.952,18.952,0,0,1,16.481,26.476,18.95,18.95,0,1,0-31.81-19.835,18.913,18.913,0,0,1,15.329-6.641Z" transform="translate(-443.02 -238.973)" fill="#cfcfcf"/>
  <path id="Path_1516" data-name="Path 1516" d="M584.817,494.347h0a10.3,10.3,0,0,1-10.3-10.136c-.125-7.832-.19-17.484-.19-18.587a27.835,27.835,0,0,1,1.147-7.926h0a28.146,28.146,0,0,1,1.627-3.761,32.587,32.587,0,0,0-4.588,8.5h0a27.837,27.837,0,0,0-1.147,7.926c0,1.1.065,10.755.19,18.589a10.3,10.3,0,0,0,10.3,10.134h0a10.3,10.3,0,0,0,9.89-7.415A10.263,10.263,0,0,1,584.817,494.347Z" transform="translate(-454.786 -364.64)" fill="#cfcfcf"/>
  <path id="Path_1517" data-name="Path 1517" d="M126.539,549.3h3.63l1.727-14h-5.358Z" transform="translate(-89.069 -376.791)" fill="#ffb8b8"/>
  <path id="Path_1518" data-name="Path 1518" d="M0,0H11.409V4.408h-7A4.408,4.408,0,0,1,0,0Z" transform="translate(48.1 175.879) rotate(179.997)" fill="#433014"/>
  <path id="Path_1519" data-name="Path 1519" d="M82.539,549.3h3.63l1.727-14H82.538Z" transform="translate(-58.098 -376.791)" fill="#ffb8b8"/>
  <path id="Path_1520" data-name="Path 1520" d="M0,0H11.409V4.408h-7A4.408,4.408,0,0,1,0,0Z" transform="translate(35.071 175.879) rotate(179.997)" fill="#433014"/>
  <path id="Path_1521" data-name="Path 1521" d="M259.371,604.928l-3.546-.187a1.384,1.384,0,0,1-1.308-1.471l4.238-46.923,19.517,5.266,1.88-.513-5.88,41.539a1.391,1.391,0,0,1-1.29,1.168l-3.822.178a1.384,1.384,0,0,1-1.46-1.42l.693-24.931a.461.461,0,0,0-.913-.107l-6.679,26.3a1.376,1.376,0,0,1-1.353,1.1Z" transform="translate(-231.757 -436.727)"/>
  <circle id="Ellipse_53" data-name="Ellipse 53" cx="7.273" cy="7.273" r="7.273" transform="translate(30.849 66.683)" fill="#ffb8b8"/>
  <path id="Path_1522" data-name="Path 1522" d="M265.482,446.9l.8,17.253.289,6.277a1.375,1.375,0,0,0,.91,1.236l18.754,6.794a1.325,1.325,0,0,0,.474.083,1.375,1.375,0,0,0,1.381-1.418l-.769-31.022a10.935,10.935,0,0,0-9.1-10.564c-.181-.028-.366-.055-.551-.08a10.734,10.734,0,0,0-8.636,2.8,11.026,11.026,0,0,0-3.549,8.645Z" transform="translate(-239.469 -351.574)" fill="#10323e"/>
  <path id="Path_1523" data-name="Path 1523" d="M346.958,537.617a2.98,2.98,0,0,1-1.59-4.509l-6.36-8.457,5.488-.34,5.2,8.083a2.994,2.994,0,0,1-2.737,5.222Z" transform="translate(-291.232 -414.176)" fill="#ffb8b8"/>
  <path id="Path_1524" data-name="Path 1524" d="M325.5,480.641a1.375,1.375,0,0,1-.752-.746l-9.581-22.828a3.691,3.691,0,1,1,6.806-2.857l9.582,22.829a1.385,1.385,0,0,1-.74,1.812l-4.254,1.785a1.374,1.374,0,0,1-1.059.005Z" transform="translate(-274.248 -363.24)" fill="#102d37"/>
  <path id="Path_1525" data-name="Path 1525" d="M298.119,502.4l9.2-17.621a1.444,1.444,0,0,1,1.947-.611l13.358,6.976a1.444,1.444,0,0,1,.611,1.947l-9.2,17.621a1.444,1.444,0,0,1-1.947.611l-13.358-6.976A1.444,1.444,0,0,1,298.119,502.4Z" transform="translate(-262.336 -385.806)" fill="#d99b39"/>
  <path id="Path_1526" data-name="Path 1526" d="M287.432,501.9a2.98,2.98,0,0,0-4.595-1.321l-8.818-5.849-.015,5.5,8.375,4.712a2.994,2.994,0,0,0,5.052-3.04Z" transform="translate(-245.477 -393.353)" fill="#ffb8b8"/>
  <path id="Path_1527" data-name="Path 1527" d="M256.335,467.459l-7.206-5.708a5.082,5.082,0,0,1-2.317-8.035l6.543-8.575a2.99,2.99,0,0,1,5.072,3.045l-5.177,8.469,7.608,3.609a1.384,1.384,0,0,1,.577,1.99l-3.071,4.86a1.386,1.386,0,0,1-.938.625l-.023,0A1.39,1.39,0,0,1,256.335,467.459Z" transform="translate(-225.528 -357.677)" fill="#102d37"/>
  <path id="Path_1528" data-name="Path 1528" d="M279.345,382.646a.632.632,0,0,1,.55-.835,1.46,1.46,0,0,1,1.029.508,4.1,4.1,0,0,0,.909.781.782.782,0,0,0,1.03-.186,1.432,1.432,0,0,0-.055-1.111,10.929,10.929,0,0,1-.483-2.893,5.094,5.094,0,0,1,.728-3.094,4.093,4.093,0,0,1,3.508-1.491,23.57,23.57,0,0,1,3.94.7,1.323,1.323,0,0,0,1.289-.216,1.661,1.661,0,0,0,.067-1.482,10.291,10.291,0,0,0-1.559-3.717,5.6,5.6,0,0,0-3.571-2.011,8.568,8.568,0,0,0-3.986.453A10.688,10.688,0,0,0,277.5,371.7a8.657,8.657,0,0,0-1.652,6.4,7.9,7.9,0,0,0,2.927,4.991Z" transform="translate(-246.719 -303.82)" fill="#433014"/>
  <path id="Path_1529" data-name="Path 1529" d="M573.618,684.829a13.619,13.619,0,0,1-5.055-21.168,13.62,13.62,0,1,0,18.527,19.681A13.612,13.612,0,0,1,573.618,684.829Z" transform="translate(-448.88 -512.263)" fill="#cfcfcf"/>
</svg>
