<svg xmlns="http://www.w3.org/2000/svg" width="162.967" height="146.291" viewBox="0 0 162.967 146.291">
  <g id="Group_902" data-name="Group 902" transform="translate(0 0)">
    <path id="Path_1491" data-name="Path 1491" d="M480.821,250.107a.285.285,0,0,1-.163-.051l-79.07-55.066a1.434,1.434,0,0,0-1.638,0l-78.5,55.063a.286.286,0,0,1-.328-.468l78.5-55.063a2.008,2.008,0,0,1,2.293,0l79.07,55.066a.286.286,0,0,1-.164.521Z" transform="translate(-319.284 -194.163)" fill="#324a54"/>
    <path id="Path_1492" data-name="Path 1492" d="M23.264,63.837,98.175,8.319l75.479,59.469-71.62,42.457-38.883-8.863Z" transform="translate(-16.613 -5.941)" fill="rgba(50,74,84,0.52)"/>
    <path id="Path_1493" data-name="Path 1493" d="M392.5,642.067H355.5a1.729,1.729,0,1,1,0-3.458H392.5a1.729,1.729,0,1,1,0,3.458Z" transform="translate(-342.684 -511.539)" fill="#f5a934"/>
    <path id="Path_1494" data-name="Path 1494" d="M368.774,616.067H355.5a1.729,1.729,0,1,1,0-3.458h13.278a1.729,1.729,0,1,1,0,3.458Z" transform="translate(-342.684 -492.973)" fill="#f5a934"/>
    <path id="Path_1495" data-name="Path 1495" d="M486.52,301.673a2.163,2.163,0,0,1-.82-.161l-46.2-19.17v-60a2,2,0,0,1,2-2h88.631a2,2,0,0,1,2,2v60.046l-.087.037L487.365,301.5A2.178,2.178,0,0,1,486.52,301.673Z" transform="translate(-403.905 -212.854)" fill="#fff"/>
    <path id="Path_1496" data-name="Path 1496" d="M486.163,301.459a2.308,2.308,0,0,1-.875-.171L439,282.081v-60.1a2.147,2.147,0,0,1,2.144-2.144h88.631a2.147,2.147,0,0,1,2.144,2.144v60.141l-44.855,19.155a2.319,2.319,0,0,1-.9.182ZM439.572,281.7l45.935,19.06a1.749,1.749,0,0,0,1.335-.008l44.507-19.007V221.981a1.574,1.574,0,0,0-1.572-1.572H441.144a1.574,1.574,0,0,0-1.572,1.573Z" transform="translate(-403.548 -212.497)" fill="#3f3d56"/>
    <path id="Path_1497" data-name="Path 1497" d="M475.965,387.837h-.057l-32.822,14.015-44.907,19.176a1.449,1.449,0,0,1-1.109.006l-46.331-19.221L317.11,387.86l-.051-.023H317a2,2,0,0,0-2,2v86.916a2,2,0,0,0,2,2H475.965a2,2,0,0,0,2-2V389.838A2,2,0,0,0,475.965,387.837Zm1.43,88.917a1.43,1.43,0,0,1-1.43,1.43H317a1.43,1.43,0,0,1-1.43-1.43V389.838a1.433,1.433,0,0,1,1.375-1.43l33.791,14.021,46.111,19.133a2.036,2.036,0,0,0,1.555-.009l44.681-19.081,32.936-14.064a1.434,1.434,0,0,1,1.372,1.43Z" transform="translate(-315 -332.464)" fill="#324a54"/>
    <path id="Path_1498" data-name="Path 1498" d="M538.076,301.31a7.862,7.862,0,0,1-4.731-1.571l-.085-.064-17.815-13.64a7.915,7.915,0,1,1,9.628-12.565l11.539,8.848,27.269-35.563a7.915,7.915,0,0,1,11.1-1.465l-.169.23.174-.227a7.924,7.924,0,0,1,1.465,11.1l-32.075,41.831A7.918,7.918,0,0,1,538.076,301.31Z" transform="translate(-455.922 -229.506)" fill="#f5a934"/>
  </g>
</svg>
