<svg xmlns="http://www.w3.org/2000/svg" width="87.758" height="87.758" viewBox="0 0 87.758 87.758">
  <path id="Icon_ionic-md-happy" data-name="Icon ionic-md-happy" d="M45.754,3.375A42.379,42.379,0,1,0,88.133,45.754,42.368,42.368,0,0,0,45.754,3.375Zm0,76.282a33.9,33.9,0,1,1,33.9-33.9A34,34,0,0,1,45.754,79.657ZM60.587,41.516a6.357,6.357,0,1,0-6.357-6.357A6.243,6.243,0,0,0,60.587,41.516Zm-29.665,0a6.357,6.357,0,1,0-6.357-6.357A6.243,6.243,0,0,0,30.921,41.516ZM45.754,69.063A23.09,23.09,0,0,0,67.368,54.23H24.141A23.09,23.09,0,0,0,45.754,69.063Z" transform="translate(-1.875 -1.875)" fill="none" stroke="#fff" stroke-width="3"/>
</svg>
