<svg xmlns="http://www.w3.org/2000/svg" width="355.988" height="224.058" viewBox="0 0 355.988 224.058">
  <g id="Group_940" data-name="Group 940" transform="translate(0 0)">
    <path id="Path_1761" data-name="Path 1761" d="M901.312,635.393c1.456-11.711,8.714-23.25,19.883-27.061a54.373,54.373,0,0,0,0,37.331c1.716,4.642,4.109,9.627,2.494,14.306a12.155,12.155,0,0,1-6.208,6.532,36.092,36.092,0,0,1-8.805,2.707l-.593.49C903.307,658.907,899.856,647.1,901.312,635.393Z" transform="translate(-607.833 -447.609)" fill="#f0f0f0"/>
    <path id="Path_1762" data-name="Path 1762" d="M932.041,608.163a46.476,46.476,0,0,0-11.554,26.156,20.012,20.012,0,0,0,.228,6.266,11.478,11.478,0,0,0,2.855,5.324,23.756,23.756,0,0,1,3.687,4.413,7.027,7.027,0,0,1,.343,5.738,18.261,18.261,0,0,1-4.046,6.036c-1.811,2-3.724,4.055-4.494,6.71-.093.322-.587.158-.494-.163,1.34-4.62,5.824-7.244,7.963-11.405a7.119,7.119,0,0,0,.481-6.245c-.818-1.792-2.343-3.131-3.658-4.551a12.25,12.25,0,0,1-2.986-5.1,18.5,18.5,0,0,1-.468-6.235,45.087,45.087,0,0,1,3.293-13.7,47.3,47.3,0,0,1,8.505-13.63c.222-.249.565.143.344.39Z" transform="translate(-618.568 -447.219)" fill="#fff"/>
    <path id="Path_1763" data-name="Path 1763" d="M915.523,656.164a6.973,6.973,0,0,1-5.308-7.3.26.26,0,0,1,.52.026,6.456,6.456,0,0,0,4.951,6.784C916.011,655.748,915.846,656.241,915.523,656.164Z" transform="translate(-613.463 -472.212)" fill="#fff"/>
    <path id="Path_1764" data-name="Path 1764" d="M929.312,691.812a13.44,13.44,0,0,0,6-7.74c.094-.322.588-.158.494.163a13.979,13.979,0,0,1-6.261,8.042c-.288.171-.521-.294-.234-.465Z" transform="translate(-625.056 -493.752)" fill="#fff"/>
    <path id="Path_1765" data-name="Path 1765" d="M936.4,630.982a3.947,3.947,0,0,0,3.74-.19c.286-.175.518.291.234.465a4.423,4.423,0,0,1-4.137.219.269.269,0,0,1-.165-.328.262.262,0,0,1,.329-.166Z" transform="translate(-629.259 -455.733)" fill="#fff"/>
    <path id="Path_1766" data-name="Path 1766" d="M965.989,660.1c-.175.114-.351.228-.527.347a51.966,51.966,0,0,0-6.646,5.189c-.162.145-.325.294-.483.443a54.8,54.8,0,0,0-11.9,16.291,53.242,53.242,0,0,0-2.915,7.542c-1.076,3.569-1.958,7.524-4.087,10.443a9.161,9.161,0,0,1-.711.878H919.48c-.044-.022-.088-.039-.132-.061l-.768.035c.031-.136.066-.276.1-.413.017-.079.039-.158.057-.237.013-.053.026-.105.035-.154,0-.018.009-.035.013-.048.009-.048.022-.092.031-.136q.29-1.179.6-2.357s0,0,0-.009A78.249,78.249,0,0,1,926,680.567c.088-.162.176-.329.272-.492a50.783,50.783,0,0,1,4.561-6.918,44.918,44.918,0,0,1,2.99-3.42,37.333,37.333,0,0,1,9.342-7c6.9-3.644,14.89-5.039,22.265-2.814C965.616,659.983,965.8,660.04,965.989,660.1Z" transform="translate(-618.583 -478.461)" fill="#f0f0f0"/>
    <path id="Path_1767" data-name="Path 1767" d="M966.086,661.859a46.475,46.475,0,0,0-24.973,13.928,20.013,20.013,0,0,0-3.591,5.141,11.48,11.48,0,0,0-.926,5.97,23.756,23.756,0,0,1,.287,5.743,7.029,7.029,0,0,1-3.18,4.788,18.26,18.26,0,0,1-6.865,2.383c-2.652.509-5.415,1-7.629,2.652-.268.2-.564-.227-.3-.428,3.851-2.882,9.012-2.277,13.225-4.312a7.118,7.118,0,0,0,4.144-4.7c.426-1.924.014-3.911-.181-5.837a12.249,12.249,0,0,1,.688-5.871,18.5,18.5,0,0,1,3.38-5.26,45.088,45.088,0,0,1,10.879-8.958,47.3,47.3,0,0,1,15-5.762C966.374,661.275,966.411,661.794,966.086,661.859Z" transform="translate(-618.723 -479.975)" fill="#fff"/>
    <path id="Path_1768" data-name="Path 1768" d="M978.771,677.917a6.973,6.973,0,0,1,.16-9.027c.222-.25.622.083.4.333a6.456,6.456,0,0,0-.132,8.4C979.412,677.879,978.984,678.174,978.771,677.917Z" transform="translate(-654.374 -484.534)" fill="#fff"/>
    <path id="Path_1769" data-name="Path 1769" d="M963.466,720.431a13.441,13.441,0,0,0,9.452-2.567c.269-.2.565.228.3.427a13.978,13.978,0,0,1-9.841,2.651c-.333-.037-.239-.549.093-.512Z" transform="translate(-645.808 -514.462)" fill="#fff"/>
    <path id="Path_1770" data-name="Path 1770" d="M1013,670.636a3.947,3.947,0,0,0,3.1,2.1c.333.033.239.544-.093.512a4.423,4.423,0,0,1-3.435-2.316.269.269,0,0,1,.066-.362A.261.261,0,0,1,1013,670.636Z" transform="translate(-675.953 -485.586)" fill="#fff"/>
    <path id="Path_1771" data-name="Path 1771" d="M731.6,495.523a3.916,3.916,0,0,0-.627-5.971l3.557-13.452-6.853,2.305-2.327,12.42a3.937,3.937,0,0,0,6.25,4.7Z" transform="translate(-498.847 -356.223)" fill="#9e616a"/>
    <path id="Path_1772" data-name="Path 1772" d="M675.007,600.153h-4.773l-2.271-18.412h7.045Z" transform="translate(-410.89 -381.141)" fill="#9e616a"/>
    <path id="Path_1773" data-name="Path 1773" d="M802.66,760.216H787.268v-.195a5.991,5.991,0,0,1,5.99-5.991h9.4Z" transform="translate(-537.313 -536.578)"/>
    <path id="Path_1774" data-name="Path 1774" d="M617.007,600.153h-4.773l-2.271-18.412h7.045Z" transform="translate(-375.211 -381.141)" fill="#9e616a"/>
    <path id="Path_1775" data-name="Path 1775" d="M744.66,760.216H729.268v-.195a5.991,5.991,0,0,1,5.991-5.991h9.4Z" transform="translate(-501.629 -536.578)"/>
    <path id="Path_1095" data-name="Path 1095" d="M747.764,473.008l-1.832.506s-4.787,31.032-5.176,47.386,1.168,57.626,1.168,57.626h10.124l8.177-70.086,3.894,70.086h10.9s7.787-91.891,4.283-99.289S747.764,473.008,747.764,473.008Z" transform="translate(-508.867 -364.935)" fill="#10323e"/>
    <circle id="Ellipse_219" data-name="Ellipse 219" cx="9.147" cy="9.147" r="9.147" transform="translate(244.39 54.117)" fill="#9e616a"/>
    <path id="Path_1099" data-name="Path 1099" d="M788.073,348.563l-14.2-9.279-14.713.579-14.309,7.92,5.451,30.371-2.336,17.521s21.026-2.336,25.7,1.168a19.966,19.966,0,0,0,9.345,3.894l-.779-29.981Z" transform="translate(-511.463 -268.662)" fill="#324a54"/>
    <path id="Path_1101" data-name="Path 1101" d="M735.366,359.635l-1.471-.305-1.255.695s-3.5,4.672-3.5,8.955-4.283,45.556-4.283,45.556l7.787,3.5,6.23-32.317Z" transform="translate(-498.902 -281.799)" fill="#324a54"/>
    <path id="Path_1104" data-name="Path 1104" d="M787.416,280.722s2.392-4.574-2.871-4.99c0,0-4.487-4.07-9.061-.744a4.593,4.593,0,0,0-3.859,2.823,1.712,1.712,0,0,0-2.393,1.247,13.007,13.007,0,0,0,0,7.9c1.436,3.742,1.913,4.158,1.913,4.158s-2.359-7.845,3.383-8.261,12.169-4,12.647.569,1.2,5.7,1.2,5.7S792.919,282.593,787.416,280.722Z" transform="translate(-525.876 -223.626)" fill="#211b11"/>
    <path id="Subtraction_1" data-name="Subtraction 1" d="M335.659,296.851H222.353V211.969H335.659Z" transform="translate(-189.36 -179.666)" fill="#fff"/>
    <path id="Subtraction_1-2" data-name="Subtraction 1" d="M335.659,296.851H222.353V211.969H335.659ZM223.521,213.137v82.546h110.97V213.137Z" transform="translate(-189.36 -179.666)" fill="#e6e6e6"/>
    <g id="Group_41" data-name="Group 41" transform="translate(67.16 46.648)">
      <circle id="Ellipse_220" data-name="Ellipse 220" cx="21.574" cy="21.574" r="21.574" fill="#f5a934"/>
      <path id="Path_1106" data-name="Path 1106" d="M359.643,302.514h-7.335v-7.335a1.726,1.726,0,0,0-1.726-1.726h0a1.726,1.726,0,0,0-1.726,1.726v7.335H341.52a1.726,1.726,0,0,0-1.726,1.726h0a1.726,1.726,0,0,0,1.726,1.726h7.335V313.3a1.726,1.726,0,0,0,1.726,1.726h0a1.726,1.726,0,0,0,1.726-1.726v-7.335h7.335a1.726,1.726,0,0,0,1.726-1.726h0a1.726,1.726,0,0,0-1.726-1.726Z" transform="translate(-329.109 -282.752)" fill="#fff"/>
    </g>
    <path id="Path_1776" data-name="Path 1776" d="M179.956,160.954H137.617V129.005h42.339Z" transform="translate(-137.617 -129.005)" fill="#fff"/>
    <path id="Path_1777" data-name="Path 1777" d="M179.956,160.954H137.617V129.005h42.339Zm-41.561-.779h40.782V129.784H138.4Z" transform="translate(-137.617 -129.005)" fill="#e6e6e6"/>
    <rect id="Rectangle_342" data-name="Rectangle 342" width="31.17" height="2.078" transform="translate(5.584 8.701)" fill="#e4e4e4"/>
    <rect id="Rectangle_343" data-name="Rectangle 343" width="31.17" height="2.078" transform="translate(5.584 14.935)" fill="#e4e4e4"/>
    <rect id="Rectangle_344" data-name="Rectangle 344" width="31.17" height="2.078" transform="translate(5.584 21.169)" fill="#e4e4e4"/>
    <path id="Path_1778" data-name="Path 1778" d="M902.957,719.954h-42.34V688.005h42.34Z" transform="translate(-583.189 -496.26)" fill="#fff"/>
    <path id="Path_1779" data-name="Path 1779" d="M902.957,719.954h-42.34V688.005h42.34Zm-41.561-.779h40.782V688.784H861.4Z" transform="translate(-583.189 -496.26)" fill="#e6e6e6"/>
    <rect id="Rectangle_342-2" data-name="Rectangle 342" width="31.17" height="2.078" transform="translate(283.012 200.446)" fill="#e4e4e4"/>
    <rect id="Rectangle_343-2" data-name="Rectangle 343" width="31.17" height="2.078" transform="translate(283.012 206.68)" fill="#e4e4e4"/>
    <rect id="Rectangle_344-2" data-name="Rectangle 344" width="31.17" height="2.078" transform="translate(283.012 212.914)" fill="#e4e4e4"/>
    <path id="Path_1780" data-name="Path 1780" d="M853.722,541.253,822.1,513.1l21.243-23.864,31.625,28.151Z" transform="translate(-559.667 -367.335)" fill="#fff"/>
    <path id="Path_1781" data-name="Path 1781" d="M853.722,541.253,822.1,513.1l21.243-23.864,31.625,28.151ZM823.2,513.038l30.461,27.116,20.207-22.7L843.4,490.337Z" transform="translate(-559.667 -367.335)" fill="#e6e6e6"/>
    <rect id="Rectangle_342-3" data-name="Rectangle 342" width="2.078" height="31.17" transform="translate(280.675 134.901) rotate(-48.326)" fill="#e4e4e4"/>
    <rect id="Rectangle_343-3" data-name="Rectangle 343" width="2.078" height="31.17" transform="translate(277.198 139.028) rotate(-48.326)" fill="#e4e4e4"/>
    <rect id="Rectangle_344-3" data-name="Rectangle 344" width="2.078" height="31.17" transform="translate(273.103 143.154) rotate(-48.326)" fill="#e4e4e4"/>
    <path id="Path_1782" data-name="Path 1782" d="M233.85,203.164H186.617V167.522H233.85Z" transform="translate(-167.538 -152.525)" fill="#fff"/>
    <path id="Path_1783" data-name="Path 1783" d="M233.85,203.164H186.617V167.522H233.85Zm-46.364-.869h45.5v-33.9h-45.5Z" transform="translate(-167.538 -152.525)" fill="#e6e6e6"/>
    <rect id="Rectangle_342-4" data-name="Rectangle 342" width="34.773" height="2.318" transform="translate(25.309 24.704)" fill="#d99b39"/>
    <rect id="Rectangle_343-4" data-name="Rectangle 343" width="34.773" height="2.318" transform="translate(25.309 31.658)" fill="#d99b39"/>
    <rect id="Rectangle_344-4" data-name="Rectangle 344" width="34.773" height="2.318" transform="translate(25.309 38.613)" fill="#d99b39"/>
    <path id="Path_1784" data-name="Path 1784" d="M509.7,413.4H437.617v-54.39H509.7Z" transform="translate(-322.463 -281.315)" fill="#fff"/>
    <path id="Path_1785" data-name="Path 1785" d="M509.7,413.4H437.617v-54.39H509.7Zm-70.752-1.326H508.37V360.331H438.943Z" transform="translate(-322.463 -281.315)" fill="#e6e6e6"/>
    <rect id="Rectangle_342-5" data-name="Rectangle 342" width="53.064" height="3.538" transform="translate(124.636 93.394)" fill="#d99b39"/>
    <rect id="Rectangle_343-5" data-name="Rectangle 343" width="53.064" height="3.538" transform="translate(124.636 102.89)" fill="#d99b39"/>
    <rect id="Rectangle_344-5" data-name="Rectangle 344" width="53.064" height="3.538" transform="translate(124.636 112.388)" fill="#d99b39"/>
    <path id="Path_1786" data-name="Path 1786" d="M767.179,769.541H580.169a.464.464,0,0,1,0-.927h187.01a.464.464,0,0,1,0,.927Z" transform="translate(-411.655 -545.483)" fill="#cacaca"/>
    <path id="Path_1787" data-name="Path 1787" d="M842.644,494.612A3.916,3.916,0,0,1,844.786,489l.024-13.914,6.029,3.991-.947,12.6a3.937,3.937,0,0,1-7.248,2.931Z" transform="translate(-571.016 -355.623)" fill="#9e616a"/>
    <path id="Path_1100" data-name="Path 1100" d="M840.579,363.042l2.694-2.6,1.979,1.428s1.947,2.336,3.5,9.345,0,45.556,0,45.556l-8.566-1.168,1.168-20.247-3.5-17.132Z" transform="translate(-568.4 -282.389)" fill="#324a54"/>
  </g>
</svg>
