<svg xmlns="http://www.w3.org/2000/svg" width="277.803" height="132.852" viewBox="0 0 277.803 132.852">
  <g id="Group_938" data-name="Group 938" transform="translate(0 0)">
    <path id="Path_765" data-name="Path 765" d="M413.329,268.575H345.208v-1.4H314.319v1.4h-68.4a4.608,4.608,0,0,0-4.608,4.608h0V366.46a4.608,4.608,0,0,0,4.608,4.608h167.41a4.608,4.608,0,0,0,4.608-4.608V273.183a4.608,4.608,0,0,0-4.608-4.608Z" transform="translate(-196.325 -248.615)" fill="#d99b39"/>
    <rect id="Rectangle_125" data-name="Rectangle 125" width="164.27" height="92.665" transform="translate(51.163 28.103)" fill="#e6e6e6"/>
    <rect id="Rectangle_130" data-name="Rectangle 130" width="150.393" height="80.098" transform="translate(58.13 33.003)" fill="#fff"/>
    <circle id="Ellipse_120" data-name="Ellipse 120" cx="1.685" cy="1.685" r="1.685" transform="translate(131.473 22.206)" fill="#6c63ff"/>
    <path id="Path_766" data-name="Path 766" d="M402.758,647.209H386.727v-1.155a.229.229,0,0,0-.229-.229H381a.229.229,0,0,0-.229.229h0v1.155h-3.435v-1.155a.229.229,0,0,0-.229-.229h-5.5a.229.229,0,0,0-.229.229h0v1.155h-3.435v-1.155a.229.229,0,0,0-.229-.229h-5.5a.229.229,0,0,0-.229.229h0v1.155h-3.435v-1.155a.229.229,0,0,0-.229-.229h-5.5a.229.229,0,0,0-.229.229h0v1.155h-3.435v-1.155a.229.229,0,0,0-.229-.229h-5.5a.229.229,0,0,0-.229.229h0v1.155h-3.435v-1.155a.229.229,0,0,0-.229-.229h-5.5a.229.229,0,0,0-.229.229h0v1.155h-3.437v-1.155a.229.229,0,0,0-.229-.229H287.1a.229.229,0,0,0-.229.229h0v1.155h-3.435v-1.155a.229.229,0,0,0-.229-.229h-5.5a.229.229,0,0,0-.229.229h0v1.155h-3.435v-1.155a.229.229,0,0,0-.229-.229h-5.5a.229.229,0,0,0-.229.229h0v1.155h-3.435v-1.155a.229.229,0,0,0-.229-.229h-5.5a.229.229,0,0,0-.229.229h0v1.155h-3.435v-1.155a.229.229,0,0,0-.229-.229h-5.5a.229.229,0,0,0-.229.229h0v1.155h-3.435v-1.155a.229.229,0,0,0-.229-.229h-5.5a.229.229,0,0,0-.229.229h0v1.155h-3.435v-1.155a.229.229,0,0,0-.229-.229h-5.5a.229.229,0,0,0-.229.229h0v1.155H220a5.5,5.5,0,0,0-5.5,5.5v2.485a5.5,5.5,0,0,0,5.5,5.5H402.758a5.5,5.5,0,0,0,5.5-5.5v-2.485a5.5,5.5,0,0,0-5.5-5.5Z" transform="translate(-176.535 -528.126)" fill="#d99b39"/>
    <rect id="Rectangle_126" data-name="Rectangle 126" width="66.505" height="69.909" transform="translate(100.074 38.621)" fill="#e6e6e6"/>
    <rect id="Rectangle_128" data-name="Rectangle 128" width="277.803" height="0.524" transform="translate(0 132.329)" fill="#e6e6e6"/>
    <path id="Path_776" data-name="Path 776" d="M1000.191,618.721c3.764,4.039,3.959,9.976,3.959,9.976s-5.908-.612-9.672-4.651-3.959-9.976-3.959-9.976S996.426,614.682,1000.191,618.721Z" transform="translate(-749.368 -504.685)" fill="#10323e"/>
    <path id="Path_777" data-name="Path 777" d="M1044.586,628.644c-4.039,3.764-9.976,3.959-9.976,3.959s.612-5.908,4.651-9.672,9.976-3.959,9.976-3.959S1048.626,624.88,1044.586,628.644Z" transform="translate(-781.914 -508.304)" fill="#10323e"/>
    <path id="Path_778" data-name="Path 778" d="M1013.593,674.386H998.737a1.519,1.519,0,0,1-1.366-.855l-3.234-6.649A1.519,1.519,0,0,1,995.5,664.7h21.325a1.519,1.519,0,0,1,1.367,2.184l-3.234,6.649a1.519,1.519,0,0,1-1.366.855Z" transform="translate(-751.924 -542.057)" fill="#e5e5e5"/>
    <path id="Path_779" data-name="Path 779" d="M103.188,618.721c3.764,4.039,3.959,9.976,3.959,9.976s-5.908-.612-9.672-4.651-3.959-9.976-3.959-9.976S99.424,614.682,103.188,618.721Z" transform="translate(-87.228 -504.685)" fill="#e5e5e5"/>
    <path id="Path_780" data-name="Path 780" d="M107.593,674.386H92.737a1.519,1.519,0,0,1-1.366-.855l-3.234-6.649A1.519,1.519,0,0,1,89.5,664.7h21.325a1.519,1.519,0,0,1,1.366,2.184l-3.234,6.649a1.519,1.519,0,0,1-1.366.855Z" transform="translate(-83.143 -542.057)" fill="#e5e5e5"/>
    <circle id="Ellipse_127" data-name="Ellipse 127" cx="8.839" cy="8.839" r="8.839" transform="translate(132.512 40.734)" fill="#a0616a"/>
    <path id="Path_803" data-name="Path 803" d="M531.686,477.669l5.708-35.933a13.623,13.623,0,0,1,17.275-10.94h0a13.582,13.582,0,0,1,9.573,15.568l-5.97,32.09Z" transform="translate(-410.671 -368.995)" fill="#324a54"/>
    <path id="Path_804" data-name="Path 804" d="M602.727,588.155a3.619,3.619,0,0,0,.628-5.513l5.9-11.426-6.645.709-4.584,10.742a3.639,3.639,0,0,0,4.7,5.489Z" transform="translate(-458.936 -473.052)" fill="#a0616a"/>
    <path id="Path_805" data-name="Path 805" d="M613.212,492.536a1.621,1.621,0,0,1-.873-.414l-2.257-2.086a1.625,1.625,0,0,1-.393-1.819l4.512-10.694-.64-21.131A5.217,5.217,0,0,1,623.9,457.8h0l1.094,13.283a16.689,16.689,0,0,1-3.216,11.3L614.74,491.9a1.621,1.621,0,0,1-1.15.649A1.6,1.6,0,0,1,613.212,492.536Z" transform="translate(-468.157 -384.961)" fill="#324a54"/>
    <path id="Path_806" data-name="Path 806" d="M414.781,355.075a3.619,3.619,0,0,0,4.832,2.729l8.221,9.888,1.938-6.4-8.1-8.41a3.639,3.639,0,0,0-6.886,2.188Z" transform="translate(-324.329 -310.318)" fill="#a0616a"/>
    <path id="Path_807" data-name="Path 807" d="M438.908,377.113a1.622,1.622,0,0,1,.722-.643l2.8-1.265a1.625,1.625,0,0,1,1.828.347l8.089,8.324,19.709,7.649a5.217,5.217,0,0,1-5.329,8.97h0l-12.659-4.171a16.688,16.688,0,0,1-9.15-7.367L438.9,378.77a1.621,1.621,0,0,1-.15-1.312,1.6,1.6,0,0,1,.156-.345Z" transform="translate(-342.015 -328.257)" fill="#324a54"/>
    <path id="Path_808" data-name="Path 808" d="M617.033,502.685l-.36,11.516-6.629,11.521,5.535-12.838Z" transform="translate(-468.513 -422.464)" opacity="0.1"/>
    <path id="Path_696" data-name="Path 696" d="M575.523,345.409a5.568,5.568,0,0,0,3.878,1.508,36.5,36.5,0,0,0,9.918-.81c.2,1.954-.348,4.061.8,5.668a26.315,26.315,0,0,0,.935-5.965,5.715,5.715,0,0,0-.33-2.555,2.35,2.35,0,0,0-2-1.476,5.017,5.017,0,0,1,2.238-.957l-2.8-1.405.718-.737-5.063-.31,1.466-.932a31.8,31.8,0,0,0-6.661-.209,5.717,5.717,0,0,0-2.946.819,2.128,2.128,0,0,0-.8,2.663,3.867,3.867,0,0,0-2.947,2.338,6.242,6.242,0,0,0-.224,3,21.268,21.268,0,0,0,1.115,4.718" transform="translate(-440.158 -300.267)" fill="#2f2e41"/>
    <path id="Path_138" data-name="Path 138" d="M485.456,219.3,404.918,237.9a1.533,1.533,0,0,1-1.836-1.147l-4.612-19.978a1.532,1.532,0,0,1,1.147-1.836l80.539-18.594a1.533,1.533,0,0,1,1.836,1.147l4.612,19.978A1.532,1.532,0,0,1,485.456,219.3Z" transform="translate(-312.306 -196.301)" fill="#fff"/>
    <path id="Path_138-2" data-name="Path 138" d="M485.456,219.3,404.918,237.9a1.533,1.533,0,0,1-1.836-1.147l-4.612-19.978a1.532,1.532,0,0,1,1.147-1.836l80.539-18.594a1.533,1.533,0,0,1,1.836,1.147l4.612,19.978A1.532,1.532,0,0,1,485.456,219.3Zm-85.7-3.77a.92.92,0,0,0-.688,1.1l4.612,19.978a.919.919,0,0,0,1.1.688l80.539-18.594a.919.919,0,0,0,.688-1.1l-4.612-19.978a.919.919,0,0,0-1.1-.688Z" transform="translate(-312.306 -196.301)" fill="#e6e6e6"/>
    <path id="Path_139" data-name="Path 139" d="M507.945,238.364a1.039,1.039,0,0,0,.464,2.026h0l47.735-11.021a1.039,1.039,0,1,0-.468-2.025Z" transform="translate(-392.55 -219.196)" fill="#e6e6e6"/>
    <path id="Path_140" data-name="Path 140" d="M513.3,279.267a1.039,1.039,0,0,0,.464,2.026h0l20.541-4.742a1.039,1.039,0,1,0-.464-2.026h0Z" transform="translate(-396.505 -254.023)" fill="#e6e6e6"/>
    <g id="Group_45" data-name="Group 45" transform="translate(96.11 20.163)">
      <circle id="Ellipse_18" data-name="Ellipse 18" cx="6.235" cy="6.235" r="6.235" fill="#f5a934"/>
      <path id="Path_395" data-name="Path 395" d="M449.277,288.832a.966.966,0,0,1-.61-.058l-.012-.005-2.509-1.139a.973.973,0,1,1,.806-1.771l1.626.74,2.281-5.011a.972.972,0,0,1,1.287-.482h0l-.014.033.014-.033a.973.973,0,0,1,.482,1.288l-2.682,5.9a.973.973,0,0,1-.668.543Z" transform="translate(-443.217 -279)" fill="#fff"/>
    </g>
  </g>
</svg>
