<svg xmlns="http://www.w3.org/2000/svg" width="93.371" height="72.951" viewBox="0 0 93.371 72.951">
  <path id="Icon_awesome-users" data-name="Icon awesome-users" d="M13.556,32.229c4.985,0,9.037-4.481,9.037-9.993s-4.053-9.993-9.037-9.993-9.037,4.481-9.037,9.993S8.571,32.229,13.556,32.229Zm63.26,0c4.985,0,9.037-4.481,9.037-9.993s-4.053-9.993-9.037-9.993-9.037,4.481-9.037,9.993S71.831,32.229,76.815,32.229Zm4.519,5H72.3a8.6,8.6,0,0,0-6.368,2.9,22.963,22.963,0,0,1,10.6,17.082h9.32a4.77,4.77,0,0,0,4.519-5v-5C90.371,41.707,86.319,37.226,81.334,37.226Zm-36.148,0C53.926,37.226,61,29.4,61,19.738S53.926,2.25,45.186,2.25,29.371,10.073,29.371,19.738,36.445,37.226,45.186,37.226Zm10.845,5H54.858a19.974,19.974,0,0,1-19.345,0H34.341c-8.981,0-16.267,8.057-16.267,17.987v4.5c0,4.138,3.036,7.495,6.778,7.495H65.519c3.742,0,6.778-3.357,6.778-7.495v-4.5C72.3,50.279,65.011,42.222,56.03,42.222ZM24.443,40.13a8.6,8.6,0,0,0-6.368-2.9H9.037C4.053,37.226,0,41.707,0,47.219v5a4.77,4.77,0,0,0,4.519,5h9.305A23.018,23.018,0,0,1,24.443,40.13Z" transform="translate(1.5 -0.75)" fill="none" stroke="#fff" stroke-width="3"/>
</svg>
